<svg width="300" height="290" viewBox="0 0 300 290" fill="none" xmlns="http://www.w3.org/2000/svg">
<path d="M404 174.111C404 224.727 373.854 242.4 336.666 242.4C299.479 242.4 269.333 224.727 269.333 174.111C269.333 123.495 336.666 59.1035 336.666 59.1035C336.666 59.1035 404 123.495 404 174.111Z" fill="#F2F2F2"/>
<path d="M36.6593 258.419C36.6593 272.054 28.4528 276.815 18.3296 276.815C8.20647 276.815 0 272.054 0 258.419C0 244.783 18.3296 227.437 18.3296 227.437C18.3296 227.437 36.6593 244.783 36.6593 258.419Z" fill="#F2F2F2"/>
<path d="M17.6475 274.197L17.83 262.733L25.4371 248.551L17.8587 260.935L17.9408 255.78L23.1837 245.52L17.9627 254.416V254.416L18.1104 245.146L23.7247 236.977L18.1338 243.688L18.2261 226.689L17.6459 249.192L17.6932 248.264L11.9854 239.361L17.6018 250.046L17.0701 260.4L17.0543 260.125L10.4741 250.756L17.0341 261.096L16.9677 262.391L16.956 262.41L16.9612 262.517L15.6118 288.785H17.4148L17.6309 275.217L24.1754 264.902L17.6475 274.197V274.197Z" fill="#3F3D56"/>
<path d="M2.24463 289.159H368.089" stroke="#3F3D56" stroke-width="1.4963"/>
<rect x="234.17" y="65.837" width="4.48889" height="35.163" rx="1.7145" fill="#3F3D56"/>
<rect x="92.7705" y="38.1556" width="2.24445" height="11.2222" rx="1.12222" fill="#3F3D56"/>
<rect x="92.7705" y="59.1035" width="2.99259" height="20.2" rx="1.26781" fill="#3F3D56"/>
<rect x="92.7705" y="86.785" width="2.24445" height="20.2" rx="1.12222" fill="#3F3D56"/>
<rect x="94.2671" width="142.148" height="288.785" rx="17" fill="#3F3D56"/>
<rect x="151.126" y="8.97754" width="20.2" height="3.74074" rx="1.87037" fill="#E6E8EC"/>
<path d="M176.563 12.7184C177.802 12.7184 178.807 11.7135 178.807 10.4739C178.807 9.23436 177.802 8.22949 176.563 8.22949C175.323 8.22949 174.318 9.23436 174.318 10.4739C174.318 11.7135 175.323 12.7184 176.563 12.7184Z" fill="#E6E8EC"/>
<path d="M228.185 18.7707V270.018C228.184 276.252 223.115 281.305 216.864 281.304H114.566C108.315 281.305 103.246 276.252 103.245 270.018V18.7707C103.244 15.7766 104.437 12.9049 106.56 10.7877C108.684 8.67051 111.564 7.48119 114.566 7.48145H129.874V9.44194C129.876 14.5753 134.049 18.7363 139.197 18.7378H191.221C196.37 18.7378 200.544 14.5759 200.544 9.44194V7.48145H216.864C219.866 7.48119 222.746 8.67051 224.87 10.7877C226.993 12.9049 228.186 15.7766 228.185 18.7707V18.7707Z" fill="white"/>
<rect x="103.245" y="65.837" width="124.941" height="143.644" fill="#F2F2F2"/>
<path d="M112.222 228.933L111.571 228.35C109.26 226.242 107.734 224.874 107.734 223.17C107.722 222.515 107.978 221.884 108.443 221.419C108.908 220.954 109.543 220.696 110.202 220.704C110.982 220.708 111.721 221.052 112.222 221.646C112.724 221.052 113.462 220.708 114.242 220.704C114.902 220.696 115.536 220.954 116.001 221.419C116.466 221.884 116.722 222.515 116.711 223.17C116.711 224.874 115.185 226.242 112.873 228.35L112.222 228.933Z" fill="#FF6584"/>
<path d="M135.415 227.091L136.713 227.437C137.183 226.164 138.295 225.189 139.686 224.83C141.077 224.472 142.568 224.776 143.671 225.644L141.69 227.437H146.637V222.948L144.643 224.732C143.195 223.547 141.207 223.119 139.349 223.594C137.492 224.069 136.014 225.383 135.415 227.091L135.415 227.091Z" fill="#F2F2F2"/>
<path d="M111.1 55.3628C114.199 55.3628 116.711 52.8507 116.711 49.7517C116.711 46.6528 114.199 44.1406 111.1 44.1406C108.001 44.1406 105.489 46.6528 105.489 49.7517C105.489 52.8507 108.001 55.3628 111.1 55.3628Z" fill="#111B47"/>
<rect x="121.2" y="46.385" width="53.8667" height="6.73333" fill="#111B47"/>
<rect x="106.985" y="238.659" width="53.8667" height="6.73333" fill="#F2F2F2"/>
<rect x="107.733" y="252.874" width="112.97" height="6.73333" fill="#F2F2F2"/>
<path d="M130.178 228.933L128.798 226.474C129.48 224.806 128.853 222.881 127.327 221.959C125.8 221.038 123.841 221.401 122.731 222.811C121.621 224.22 121.7 226.247 122.915 227.564C124.13 228.881 126.111 229.086 127.562 228.045L130.178 228.933Z" fill="#F2F2F2"/>
<path d="M154.534 99.0925H154.534C150.265 99.9749 146.519 102.534 144.118 106.207C141.718 109.88 140.86 114.366 141.733 118.678L145.124 135.415L148.92 134.63L149.188 132.856L149.982 134.41L173.06 129.639L173.328 127.866L174.123 129.42L177.311 128.761L173.921 112.024C173.047 107.712 170.514 103.927 166.878 101.502C163.243 99.0768 158.802 98.2101 154.534 99.0925V99.0925Z" fill="#2F2E41"/>
<path d="M183.781 150.378L203.497 162.487L201.032 168.333L182.548 159.564L183.781 150.378V150.378Z" fill="#9F616A"/>
<path d="M158.538 164.322C158.538 164.322 118.501 164.322 111.897 174.617C105.293 184.912 110.659 199.326 131.296 202.62C151.934 205.915 214.672 207.562 219.625 195.208C224.578 182.853 220.863 175.853 220.863 175.853C220.863 175.853 199.4 161.027 158.538 164.322Z" fill="#111B47"/>
<path d="M193.476 174.307L215.467 182.548C215.467 182.548 224.596 175.955 220.032 168.539C215.467 161.122 194.72 118.271 194.72 118.271C194.72 118.271 188.911 110.031 196.38 105.498C203.849 100.966 206.754 108.382 206.754 108.382C206.754 108.382 206.339 110.031 209.243 108.794C212.148 107.558 217.542 111.679 214.637 118.271C211.733 124.864 209.658 126.512 215.882 126.1C218.13 125.951 220.107 124.352 221.716 122.368C224.799 118.568 223.423 115.506 223.189 110.631C222.79 102.279 222.136 96.8335 220.032 93.5493C217.127 89.017 212.978 85.3087 202.189 87.3689C191.401 89.429 175.633 99.7298 179.368 114.563C183.102 129.396 191.401 145.877 191.401 145.877C191.401 145.877 197.21 168.951 193.476 174.307Z" fill="#111B47"/>
<path opacity="0.1" d="M193.77 174.151C190.207 175.134 185.733 175.613 180.917 175.762C172.513 176.022 163.053 175.279 155.499 174.436C147.338 173.523 141.4 172.499 141.4 172.499C144.159 169.922 148.398 168.902 153.379 168.53C159.565 168.068 166.896 168.596 173.977 168.369C176.587 168.278 179.199 168.474 181.766 168.956C189.577 170.447 193.77 174.151 193.77 174.151Z" fill="black"/>
<path d="M158.234 129.43C164.638 129.43 169.83 124.238 169.83 117.833C169.83 111.429 164.638 106.237 158.234 106.237C151.829 106.237 146.637 111.429 146.637 117.833C146.637 124.238 151.829 129.43 158.234 129.43Z" fill="#9F616A"/>
<path d="M156.553 127.268C156.553 127.268 158.589 135.165 156.553 135.581C154.517 135.997 149.63 138.075 149.63 138.075L155.738 140.569L167.14 151.375L176.914 156.363L181.8 154.7V145.556L174.47 133.918C174.47 133.918 169.584 135.581 168.362 130.178C167.14 124.774 164.697 122.696 164.697 122.696L156.553 127.268Z" fill="#9F616A"/>
<path d="M153.636 138.407H148.686C148.686 138.407 140.023 141.278 135.073 147.839C130.122 154.399 122.285 160.96 122.285 160.96C122.285 160.96 116.922 168.341 119.809 178.593C122.697 188.844 126.822 196.225 130.535 194.175C134.248 192.125 125.172 177.363 125.172 177.363L127.647 168.341C127.647 168.341 140.436 153.579 145.798 153.989C151.161 154.399 151.574 158.91 151.574 158.91L163.124 162.191L166.837 154.399L164.774 146.198L153.636 138.407Z" fill="#9F616A"/>
<path d="M183.128 164.77C182.353 166.096 181.784 167.532 181.442 169.028C180.93 171.238 180.647 173.495 180.598 175.763C172.239 176.02 162.83 175.284 155.316 174.451C154.652 172.686 153.922 170.655 153.208 168.607C151.285 163.074 149.497 157.427 149.497 156.598C149.497 154.963 158.11 157.824 160.16 157.415C162.211 157.006 163.031 150.468 160.16 147.199C157.289 143.93 148.881 138.413 148.881 138.413L151.752 137.596C151.752 137.596 158.11 142.295 171.234 150.059C184.359 157.824 179.027 145.565 179.027 145.565L171.439 133.918H174.72C174.72 133.918 181.077 144.747 184.359 149.651C187.64 154.554 186.409 159.458 183.128 164.77Z" fill="#3F3D56"/>
<path d="M145.415 106.911L166.3 102.637L168.923 115.453L148.038 119.727L145.415 106.911Z" fill="#2F2E41"/>
<path d="M211.351 104.741C214.864 104.741 217.711 101.894 217.711 98.3815C217.711 94.8694 214.864 92.0222 211.351 92.0222C207.839 92.0222 204.992 94.8694 204.992 98.3815C204.992 101.894 207.839 104.741 211.351 104.741Z" fill="#3F3D56"/>
<path d="M211.352 101.748C213.211 101.748 214.719 100.241 214.719 98.3813C214.719 96.522 213.211 95.0146 211.352 95.0146C209.493 95.0146 207.985 96.522 207.985 98.3813C207.985 100.241 209.493 101.748 211.352 101.748Z" fill="white"/>
<path d="M29.5273 169.081L29.0982 172.319C28.9529 173.415 28.8076 174.512 28.7293 175.615C28.4691 179.283 28.9542 182.965 28.8265 186.64C28.7282 189.469 28.267 192.296 28.4898 195.118C28.6869 197.614 29.414 200.038 30.137 202.44L31.1705 205.873C31.1876 206.081 31.303 206.269 31.4825 206.382C31.6621 206.495 31.8853 206.52 32.086 206.449L36.6593 206.044C36.3664 204.732 36.0407 203.364 35.8833 202.03C35.7588 200.975 35.684 199.915 35.6059 198.855C35.3626 195.553 35.087 192.253 34.8115 188.954L34.3275 183.157C34.1176 180.642 33.9051 178.113 33.2572 175.671C32.6116 173.199 31.3273 170.93 29.5273 169.081V169.081Z" fill="#111B47"/>
<path opacity="0.1" d="M29.5273 169.081L29.0982 172.319C28.9529 173.415 28.8076 174.512 28.7293 175.615C28.4691 179.283 28.9542 182.965 28.8265 186.64C28.7282 189.469 28.267 192.296 28.4898 195.118C28.6869 197.614 29.414 200.038 30.137 202.44L31.1705 205.873C31.1876 206.081 31.303 206.269 31.4825 206.382C31.6621 206.495 31.8853 206.52 32.086 206.449L36.6593 206.044C36.3664 204.732 36.0407 203.364 35.8833 202.03C35.7588 200.975 35.684 199.915 35.6059 198.855C35.3626 195.553 35.087 192.253 34.8115 188.954L34.3275 183.157C34.1176 180.642 33.9051 178.113 33.2572 175.671C32.6116 173.199 31.3273 170.93 29.5273 169.081V169.081Z" fill="black"/>
<path d="M38.0407 280.885C37.7742 281.407 37.5421 281.947 37.3462 282.499C36.8264 284.026 36.7479 285.662 36.6739 287.273C36.6384 287.584 36.6673 287.899 36.7586 288.198C36.9808 288.777 37.6213 289.071 38.22 289.232C40.7274 289.906 43.3713 289.271 45.9575 289.04C48.4959 288.813 51.0817 288.977 53.568 288.417C53.9354 288.348 54.2906 288.224 54.6219 288.051C55.2521 287.641 55.7223 287.027 55.9536 286.311C56.0292 286.128 56.08 285.936 56.1048 285.739C56.1869 284.892 55.4484 284.155 54.6441 283.877C53.8397 283.598 52.9652 283.644 52.1184 283.557C48.5374 283.189 45.6486 280.463 45.0721 276.908C45.0421 276.723 40.8852 276.832 40.4477 277.072C39.9356 277.353 39.6257 278.055 39.3372 278.529C38.871 279.295 38.4389 280.08 38.0407 280.885Z" fill="#3F3D56"/>
<path opacity="0.1" d="M38.0407 280.885C37.7742 281.407 37.5421 281.947 37.3462 282.499C36.8264 284.026 36.7479 285.662 36.6739 287.273C36.6384 287.584 36.6673 287.899 36.7586 288.198C36.9808 288.777 37.6213 289.071 38.22 289.232C40.7274 289.906 43.3713 289.271 45.9575 289.04C48.4959 288.813 51.0817 288.977 53.568 288.417C53.9354 288.348 54.2906 288.224 54.6219 288.051C55.2521 287.641 55.7223 287.027 55.9536 286.311C56.0292 286.128 56.08 285.936 56.1048 285.739C56.1869 284.892 55.4484 284.155 54.6441 283.877C53.8397 283.598 52.9652 283.644 52.1184 283.557C48.5374 283.189 45.6486 280.463 45.0721 276.908C45.0421 276.723 40.8852 276.832 40.4477 277.072C39.9356 277.353 39.6257 278.055 39.3372 278.529C38.871 279.295 38.4389 280.08 38.0407 280.885Z" fill="black"/>
<path d="M44.7746 280.885C44.508 281.407 44.276 281.947 44.0801 282.499C43.5603 284.026 43.4817 285.662 43.4078 287.273C43.3723 287.584 43.4011 287.899 43.4925 288.198C43.7147 288.777 44.3552 289.071 44.9539 289.232C47.4613 289.906 50.1052 289.271 52.6914 289.04C55.2298 288.813 57.8156 288.977 60.3018 288.417C60.6693 288.348 61.0244 288.224 61.3557 288.051C61.986 287.641 62.4562 287.027 62.6874 286.311C62.7631 286.128 62.8139 285.936 62.8387 285.739C62.9208 284.892 62.1823 284.155 61.378 283.877C60.5736 283.598 59.699 283.644 58.8523 283.557C55.2713 283.189 52.3825 280.463 51.806 276.908C51.776 276.723 47.6191 276.832 47.1816 277.072C46.6695 277.353 46.3595 278.055 46.071 278.529C45.6049 279.295 45.1728 280.08 44.7746 280.885Z" fill="#3F3D56"/>
<path d="M62.0958 240.122C62.1483 248.386 59.7681 256.464 56.9763 264.232C55.871 267.308 54.6982 270.356 53.4577 273.378C52.7234 275.169 51.8959 277.155 52.6828 278.923C50.4182 278.053 48.0995 277.539 45.7087 277.941C46.6187 276.068 46.5331 273.887 46.5737 271.802C46.6527 268.971 46.9545 266.151 47.4762 263.368C48.2771 259.134 49.6511 255.031 51.5595 251.175C51.9464 250.362 52.2131 249.496 52.3509 248.604C52.5987 246.622 52.4847 244.611 52.0145 242.671C51.1422 238.372 49.4861 234.274 47.1308 230.586C47.1233 230.668 47.1158 230.752 47.1068 230.833C46.9644 232.063 46.7594 233.283 46.4926 234.491C45.958 237.051 45.3347 239.612 45.4279 242.185C45.5281 244.915 45.3606 247.648 44.9278 250.344C44.7903 251.403 44.5172 252.44 44.1153 253.428C43.854 254.019 43.5131 254.576 43.3074 255.189C43.1033 255.897 42.9967 256.63 42.9905 257.368C42.6857 263.591 42.986 271.555 44.246 277.655C42.1227 277.556 40.0128 278.042 38.1414 279.059C36.6186 274.721 35.6484 268.559 34.9231 263.99C34.1017 258.592 34.2687 253.089 35.4157 247.752C35.7724 245.972 35.9061 244.153 35.8137 242.338C35.6514 238.725 34.7714 235.19 33.8974 231.683C33.4529 229.902 33.0084 228.122 32.5638 226.34C31.9316 223.803 31.2984 221.266 30.6641 218.728C30.2436 217.04 29.8187 215.316 29.9508 213.58C30.0437 212.628 30.2416 211.689 30.541 210.782C31.487 207.694 32.9015 204.772 34.7339 202.122C42.0309 202.536 49.4165 201.846 56.703 201.28C57.0573 201.209 57.425 201.272 57.7362 201.458C57.9836 201.712 58.1309 202.049 58.1507 202.405C59.0638 207.626 59.9763 212.847 60.8884 218.068C61.3325 220.249 61.5933 222.463 61.6678 224.687C61.6813 226.904 61.3254 229.114 61.408 231.329C61.5191 234.314 62.0778 237.136 62.0958 240.122Z" fill="#2F2E41"/>
<path opacity="0.1" d="M47.1335 231.313C46.9884 232.524 46.7795 233.728 46.5077 234.919C44.8902 232.186 43.1473 229.522 41.6584 226.721C41.2743 225.999 40.9086 225.268 40.5414 224.538C40.1757 223.809 39.8099 223.079 39.4442 222.35C39.2391 221.94 39.0326 221.529 38.8474 221.109C38.5449 220.504 38.3129 219.868 38.1558 219.212C38.6974 219.115 40.0318 220.541 40.4327 220.913C41.2551 221.705 42.0316 222.542 42.7586 223.419C43.6383 224.391 44.4457 225.424 45.1748 226.508C46.1066 227.988 46.7693 229.613 47.1335 231.313V231.313Z" fill="black"/>
<path d="M53.867 155.327C53.867 155.327 49.7137 162.031 50.4828 163.435C51.252 164.838 37.4077 162.187 37.4077 162.187C37.4077 162.187 44.9451 155.483 44.176 152.676C43.4069 149.87 53.867 155.327 53.867 155.327Z" fill="#EFB7B9"/>
<path d="M49.7518 157.111C54.9167 157.111 59.1036 152.924 59.1036 147.759C59.1036 142.594 54.9167 138.407 49.7518 138.407C44.5869 138.407 40.3999 142.594 40.3999 147.759C40.3999 152.924 44.5869 157.111 49.7518 157.111Z" fill="#EFB7B9"/>
<path d="M53.7649 161.76C52.7664 160.379 51.4108 159.292 49.8417 158.615C48.9384 158.293 48.0045 158.065 47.0546 157.931L43.3326 157.281C42.4204 157.122 41.4441 156.969 40.5979 157.343C40.1654 157.56 39.7716 157.846 39.4322 158.19C38.1385 159.38 36.8849 160.689 35.263 161.376C34.819 161.565 34.3546 161.702 33.9112 161.892C32.0965 162.668 30.7397 164.289 29.9688 166.097C29.1601 167.993 29.1366 170.048 29.2005 172.107C29.1985 172.817 29.2687 173.526 29.4103 174.222C29.5981 174.885 29.834 175.533 30.1162 176.161C30.6302 177.504 31.0607 178.877 31.4052 180.272C32.3694 183.939 33.1711 187.644 33.8101 191.386C33.8658 191.924 34.025 192.446 34.2791 192.924C34.6382 193.4 35.0728 193.815 35.5658 194.152C35.9562 194.473 36.3171 194.829 36.6441 195.214C36.8037 195.378 36.9206 195.578 36.9849 195.797C37.1056 196.351 36.6135 196.825 36.2142 197.228C35.3845 198.069 34.7849 199.107 34.472 200.242C34.277 200.475 34.1782 200.773 34.1952 201.075C34.2751 201.285 34.3049 201.51 34.2821 201.733C34.2055 201.936 34.0859 202.121 33.9313 202.275C33.5714 202.74 33.4304 203.337 33.5443 203.913C36.436 205.162 39.5306 205.881 42.6795 206.038C43.4505 206.074 44.2247 206.074 44.9908 206.168C45.5372 206.235 46.077 206.349 46.6238 206.412C47.4193 206.486 48.219 206.507 49.0172 206.473C53.1695 206.391 57.4436 206.284 61.2565 204.649C61.6157 202.706 60.8419 200.726 60.3565 198.81C59.5845 195.764 59.39 192.604 58.8157 189.514C58.4226 187.4 57.8516 185.319 57.5242 183.193C57.1969 181.068 57.1201 178.864 57.7082 176.794C58.2294 174.961 58.3867 173.094 58.9269 171.265C59.4671 169.437 59.8457 167.455 59.2359 165.648C58.4797 163.408 56.1397 161.636 53.7649 161.76Z" fill="#111B47"/>
<path d="M58.2343 143.268C58.6901 141.633 57.7939 139.933 56.7216 138.605C55.5696 137.179 54.081 135.892 52.2634 135.534C50.7862 135.243 49.2556 135.594 47.7537 135.477C46.4224 135.373 45.1468 134.905 43.8224 134.737C42.6244 134.61 41.4141 134.655 40.2293 134.87C39.103 135.032 38.0022 135.334 36.9538 135.769C32.9644 137.504 30.6269 141.791 30.0845 146.043C29.5421 150.294 30.4932 154.577 31.4386 158.76L32.2932 162.541C33.1828 166.477 34.0753 170.433 34.3133 174.457C34.5513 178.482 34.1072 182.613 32.4212 186.289C37.8723 183.414 42.0958 178.718 44.3281 173.052C44.9343 171.495 45.3831 169.88 46.0546 168.35C46.6323 167.034 47.3719 165.787 47.884 164.444C48.4615 162.927 48.7388 161.316 48.701 159.697C48.6719 158.481 48.4646 157.27 48.5007 156.054C48.5369 154.837 48.8519 153.568 49.7083 152.688C50.4695 151.906 51.5511 151.53 52.5321 151.038C54.0747 150.26 55.4223 149.156 56.4778 147.805C57.0954 147.015 57.1283 146.677 57.2854 145.766C57.4382 144.879 57.9944 144.128 58.2343 143.268Z" fill="#2F2E41"/>
<path d="M58.2759 212.411C58.371 213.377 58.1956 214.368 58.4068 215.315C58.5655 216.028 58.9343 216.675 59.1511 217.371C59.3664 218.179 59.4772 219.011 59.4806 219.846C59.512 220.547 59.4582 221.399 58.8389 221.727C58.5668 221.872 58.2405 221.874 57.9574 221.995C57.6743 222.116 57.4313 222.46 57.5934 222.722C57.7298 222.942 58.0392 222.945 58.2928 222.997C58.5464 223.049 58.8255 223.312 58.6783 223.525C58.6192 223.595 58.5405 223.645 58.4524 223.669C58.1931 223.747 57.9476 223.865 57.7248 224.019C57.4996 224.18 57.3839 224.453 57.4254 224.727C57.4562 224.858 57.5456 224.967 57.6676 225.023C57.7896 225.08 57.9307 225.076 58.0502 225.015C57.9365 225.258 57.8745 225.522 57.8679 225.79C58.8589 226.216 59.9745 225.659 60.9072 225.116C61.3117 224.892 61.7022 224.643 62.0766 224.371C63.6015 223.193 64.4453 221.336 64.3305 219.412C64.2873 218.935 64.2142 218.461 64.1116 217.993C63.967 217.179 63.7761 216.374 63.5399 215.582C63.2732 214.747 62.9068 213.948 62.5924 213.129C61.9227 211.385 61.4915 209.559 60.8885 207.791C60.871 207.62 60.7832 207.464 60.6461 207.361C60.5091 207.258 60.3352 207.216 60.1663 207.247C59.4867 207.211 58.8056 207.274 58.1439 207.433C57.7441 207.55 57.0881 207.807 56.9089 208.226C56.7474 208.604 57.0181 208.942 57.1898 209.265C57.7522 210.233 58.121 211.302 58.2759 212.411Z" fill="#EFB7B9"/>
<path opacity="0.1" d="M57.8427 166.089C58.0358 166.29 58.1976 166.521 58.3222 166.772C59.6083 169.168 59.6246 172.035 59.685 174.768C59.7531 177.844 59.9174 180.918 60.0817 183.99L60.573 193.18C60.62 194.058 60.6671 194.937 60.7872 195.807C61.3652 195.957 61.3891 196.722 61.3222 197.329C60.9084 201.079 59.8788 204.94 60.9571 208.548C60.9982 208.734 61.085 208.906 61.2091 209.048C60.6657 208.873 60.0839 208.865 59.536 209.025C58.9985 209.141 58.4818 209.343 57.9462 209.468C57.2648 209.627 56.4922 209.695 56.0273 210.23C55.502 208.608 55.0836 206.952 54.7751 205.273C54.5199 203.747 54.4504 202.16 53.8436 200.742C53.5986 200.17 53.2713 199.639 52.9726 199.094C51.4012 196.226 50.6318 192.982 49.8799 189.784C49.5423 188.268 49.4614 186.703 49.6406 185.159C49.7474 184.454 49.8101 183.743 49.8284 183.031C49.7805 182.279 49.6843 181.531 49.5405 180.791C49.223 178.624 49.3717 176.411 49.9761 174.308C50.5392 172.355 51.033 170.301 52.2106 168.66C53.3882 167.02 55.8557 166.117 57.8427 166.089Z" fill="black"/>
<path d="M57.8427 165.341C58.0358 165.542 58.1976 165.773 58.3222 166.024C59.6083 168.42 59.6246 171.287 59.685 174.02C59.7531 177.096 59.9174 180.17 60.0817 183.242L60.573 192.432C60.62 193.31 60.6671 194.189 60.7872 195.059C61.3652 195.209 61.3891 195.974 61.3222 196.581C60.9084 200.331 59.8788 204.192 60.9571 207.8C60.9982 207.986 61.085 208.158 61.2092 208.3C60.6657 208.125 60.0839 208.117 59.536 208.277C58.9985 208.393 58.4818 208.595 57.9462 208.72C57.2648 208.879 56.4922 208.947 56.0273 209.482C55.502 207.86 55.0836 206.204 54.7751 204.525C54.5199 202.999 54.4504 201.412 53.8436 199.994C53.5986 199.422 53.2713 198.891 52.9726 198.346C51.4012 195.478 50.6318 192.234 49.8799 189.036C49.5423 187.52 49.4614 185.955 49.6406 184.411C49.7474 183.706 49.8101 182.995 49.8284 182.283C49.7805 181.53 49.6843 180.783 49.5405 180.043C49.223 177.876 49.3717 175.663 49.9761 173.56C50.5393 171.607 51.033 169.553 52.2106 167.912C53.3882 166.272 55.8557 165.368 57.8427 165.341Z" fill="#111B47"/>
<g opacity="0.1">
<path d="M56.6327 138.093C55.4842 136.657 54.0003 135.36 52.1884 135C50.7158 134.706 49.19 135.06 47.6929 134.943C46.3658 134.838 45.0942 134.366 43.774 134.197C42.5797 134.069 41.3732 134.115 40.1921 134.331C39.0693 134.494 37.972 134.798 36.9268 135.236C36.362 135.486 35.823 135.789 35.3174 136.142C36.2491 135.792 37.2158 135.542 38.201 135.395C39.3821 135.178 40.5887 135.133 41.7829 135.26C43.1032 135.43 44.3748 135.902 45.7018 136.006C47.199 136.124 48.7248 135.77 50.1973 136.063C52.0093 136.424 53.4932 137.72 54.6417 139.157C55.7105 140.494 56.6039 142.207 56.1496 143.853C55.9104 144.719 55.356 145.476 55.2036 146.369C55.0471 147.287 55.0143 147.627 54.3986 148.423C53.6061 149.447 52.6476 150.332 51.5621 151.044C51.8617 150.902 52.1634 150.764 52.4562 150.616C53.994 149.832 55.3374 148.72 56.3896 147.359C57.0053 146.563 57.038 146.224 57.1946 145.305C57.347 144.412 57.9014 143.656 58.1406 142.789C58.595 141.143 57.7015 139.43 56.6327 138.093Z" fill="black"/>
<path d="M49.6416 152.277C49.8021 152.113 49.9769 151.962 50.1639 151.828C49.2712 152.256 48.3321 152.634 47.6506 153.341C46.7969 154.227 46.4828 155.506 46.4468 156.731C46.4107 157.956 46.6174 159.176 46.6465 160.401C46.6842 162.031 46.4077 163.654 45.832 165.182C45.3216 166.534 44.5842 167.79 44.0083 169.116C43.3389 170.657 42.8916 172.284 42.2872 173.851C40.3569 178.798 36.9289 183.031 32.4749 185.966C32.4523 186.017 32.4318 186.069 32.4087 186.12C37.8427 183.224 42.0529 178.495 44.2782 172.788C44.8825 171.22 45.3299 169.594 45.9993 168.052C46.5752 166.726 47.3125 165.47 47.823 164.118C48.3987 162.59 48.6751 160.968 48.6375 159.337C48.6084 158.112 48.4017 156.892 48.4378 155.667C48.4738 154.442 48.7879 153.163 49.6416 152.277Z" fill="black"/>
</g>
<path d="M253.267 287.904C252.818 288.414 252.049 288.516 251.353 288.584C250.454 288.706 249.542 288.723 248.639 288.632C247.566 288.482 246.923 289.056 245.943 288.615C245.35 288.348 244.437 288.882 243.844 288.615C243.031 288.249 240.224 288.173 239.729 287.458C239.234 286.744 239.284 285.615 240.067 285.193C240.289 285.094 240.518 285.009 240.752 284.941C242.062 284.45 244.716 280.749 246.11 280.559C246.802 280.529 247.488 280.681 248.093 280.999C249.467 281.573 251.894 282.026 252.493 283.483C252.961 284.619 254.239 286.794 253.267 287.904Z" fill="#2F2E41"/>
<path d="M262.951 288.336C263.395 288.876 264.156 288.985 264.843 289.056C265.732 289.186 266.633 289.203 267.526 289.108C268.587 288.949 269.879 289.867 270.849 289.399C271.435 289.116 272.337 289.264 272.923 288.981C273.727 288.593 277.505 289.458 277.994 288.701C278.483 287.944 278.433 286.749 277.66 286.302C277.44 286.197 277.214 286.108 276.982 286.035C275.687 285.516 271.404 280.76 270.026 280.559C269.343 280.527 268.664 280.689 268.066 281.025C266.708 281.633 264.309 282.113 263.716 283.656C263.254 284.858 261.991 287.161 262.951 288.336Z" fill="#2F2E41"/>
<path d="M267.155 204.127C267.578 204.933 267.947 205.765 268.261 206.619C272.013 216.466 272.327 227.226 272.482 237.751C272.469 239.462 272.568 241.173 272.777 242.872C272.934 243.949 273.183 245.038 273.023 246.114C272.884 247.045 272.442 247.964 272.619 248.888C272.698 249.303 272.898 249.688 272.977 250.103C273.038 250.558 273.025 251.019 272.939 251.47L272.436 255.183C272.15 257.298 271.488 259.335 271.524 261.469C271.549 262.924 271.574 264.382 271.737 265.829C271.903 267.298 272.212 268.755 272.228 270.233C272.24 271.34 272.087 272.441 271.988 273.544C271.849 275.101 271.817 276.665 271.894 278.227C271.952 279.43 272.091 280.679 272.735 281.7C272.014 282.725 271.301 283.644 270.147 284.146C267.802 285.165 265.112 284.819 262.579 284.455C262.72 283.991 262.937 283.465 262.734 283.025C262.615 282.811 262.469 282.614 262.299 282.438C261.746 281.657 261.362 280.772 261.172 279.837C260.865 278.729 260.558 277.535 261.188 276.472C261.405 276.093 261.501 275.658 261.463 275.223C260.938 268.243 259.372 261.022 260.814 254.171C260.968 253.44 261.152 252.713 261.237 251.971C261.315 250.904 261.328 249.832 261.276 248.763L261.246 247.275C261.171 245.688 261.236 244.06 260.915 242.49C260.685 241.365 260.256 240.235 260.785 239.089C261.019 238.556 260.99 237.946 260.706 237.437C259.593 235.503 258.698 233.454 258.037 231.326C257.9 230.731 257.712 230.149 257.475 229.586C257.152 228.992 256.781 228.426 256.366 227.893C255.11 226.087 254.36 223.991 253.623 221.923C253.701 221.733 253.641 221.47 253.436 221.497C253.233 221.548 253.059 221.677 252.952 221.855C251.943 223.201 251.858 224.997 251.813 226.674C251.736 228.233 251.763 229.795 251.893 231.35C251.979 232.164 252.123 232.972 252.196 233.788C252.293 235.311 252.269 236.838 252.123 238.356L251.608 245.828C251.538 246.446 251.575 247.071 251.719 247.676C252.05 248.723 252.211 249.816 252.196 250.913C252.061 255.427 252.454 259.941 253.369 264.364C253.62 265.585 253.911 266.799 254.125 268.028C254.629 270.922 254.698 273.872 254.765 276.809C254.807 278.615 254.837 280.485 254.12 282.146C253.839 282.658 253.634 283.206 253.509 283.775C253.506 284.069 253.467 284.361 253.391 284.645C253.181 285.182 252.549 285.411 251.981 285.534C250.914 285.764 249.82 285.841 248.73 285.763C248.475 285.759 248.222 285.703 247.989 285.6C247.583 285.391 247.367 284.949 247.058 284.614C246.392 283.892 245.284 283.671 244.677 282.899C243.917 281.934 244.236 280.536 244.688 279.397C245.14 278.258 245.699 277.02 245.31 275.859C244.852 274.49 243.227 273.752 242.79 272.376C244.036 266.826 240.978 261.085 241.24 255.405C241.301 254.082 241.532 252.768 241.537 251.444C241.549 248.032 240.059 244.712 240.304 241.309C240.927 232.661 237.958 224.028 236.7 215.448C236.461 214.167 236.372 212.863 236.434 211.563C236.621 209.415 237.626 207.416 238.835 205.625C239.701 204.341 240.742 203.085 242.177 202.485C243.358 201.99 244.682 201.993 245.964 202.002C249.163 202.027 252.363 202.052 255.561 202.109C257.738 202.078 259.912 202.271 262.049 202.684C263.779 203.077 265.398 203.877 267.155 204.127Z" fill="#2F2E41"/>
<path d="M215.947 164.686C215.626 163.137 216.232 161.48 215.758 159.969C215.587 159.425 215.166 158.859 214.588 158.875C214.026 158.89 213.646 159.432 213.148 159.689C212.346 160.103 211.371 159.727 210.569 159.312C209.767 158.897 208.873 158.428 208.003 158.677C207.9 159.214 208.268 159.726 208.669 160.104C209.112 160.434 209.479 160.854 209.745 161.335C209.876 161.855 209.925 162.391 209.892 162.926C209.983 164.153 210.772 165.209 211.559 166.164C212.828 167.702 214.176 169.175 215.597 170.578C215.594 170.575 217.752 167.943 217.711 167.483C217.672 167.049 216.946 166.643 216.682 166.293C216.321 165.817 216.07 165.268 215.947 164.686V164.686Z" fill="#A1616A"/>
<path d="M277.257 196.295C277.438 196.781 277.574 197.283 277.662 197.796C278.187 200.419 278.518 203.08 278.844 205.738C278.931 206.447 279.017 207.158 279.044 207.872C279.136 209.569 278.798 211.261 278.063 212.781C277.316 214.306 276.044 215.488 274.498 216.097C274.022 216.272 273.356 216.303 273.148 215.828C273.074 215.608 273.075 215.368 273.152 215.15C273.34 214.442 273.723 213.806 273.971 213.119C274.34 212.091 274.401 210.973 274.148 209.909C274.05 209.503 273.844 209.049 273.445 208.968C273.644 209.906 273.477 210.887 272.979 211.698C272.866 211.925 272.671 212.095 272.436 212.174C272.097 212.209 271.779 211.997 271.67 211.664C271.573 211.337 271.552 210.99 271.609 210.653C271.736 208.948 271.988 207.255 272.361 205.589C272.805 203.76 273.509 201.956 273.464 200.071C273.423 198.363 272.764 196.686 272.948 194.988C272.951 194.883 272.984 194.781 273.043 194.696C273.1 194.636 273.171 194.591 273.249 194.565C273.711 194.367 274.186 194.205 274.671 194.079C274.957 194.004 275.936 193.653 276.21 193.81C276.432 193.937 276.501 194.698 276.612 194.956C276.809 195.411 277.07 195.834 277.257 196.295Z" fill="#A1616A"/>
<path d="M243.897 145.889C247.616 145.889 250.63 142.874 250.63 139.155C250.63 135.437 247.616 132.422 243.897 132.422C240.178 132.422 237.164 135.437 237.164 139.155C237.164 142.874 240.178 145.889 243.897 145.889Z" fill="#A1616A"/>
<path d="M250.394 144.101C250.393 144.544 250.428 144.986 250.499 145.424C250.594 145.866 250.729 146.299 250.902 146.717C251.134 147.397 251.46 148.04 251.871 148.627C252.29 149.218 252.915 149.628 253.623 149.774C248.893 152.001 243.843 153.467 238.66 154.118C239.476 153.573 240.156 152.844 240.645 151.989C240.904 151.441 241.081 150.857 241.17 150.256C241.612 147.742 241.387 145.156 240.52 142.757C240.434 142.521 240.35 142.231 240.513 142.039C240.582 141.968 240.666 141.913 240.758 141.879C242.814 141.004 245.033 140.588 247.264 140.66C247.834 140.664 248.404 140.689 248.973 140.73C249.279 140.752 249.954 140.688 250.197 140.913C250.487 141.181 250.342 142.015 250.351 142.379L250.394 144.101Z" fill="#A1616A"/>
<path d="M253.585 149.467C251.489 146.802 247.831 145.898 244.719 147.276C241.423 148.837 239.8 152.584 236.9 154.788C236.241 155.278 235.538 155.707 234.801 156.071C234.366 156.309 233.902 156.492 233.42 156.613C232.878 156.732 232.312 156.715 231.772 156.844C230.744 157.143 229.869 157.817 229.321 158.731C229.05 159.208 228.749 159.669 228.42 160.11C228.117 160.466 227.741 160.754 227.42 161.096C226.268 162.325 225.955 164.089 225.692 165.747C224.79 166.689 223.805 167.55 222.75 168.32C222.419 168.573 222.05 168.775 221.658 168.919C220.643 169.245 219.525 168.83 218.661 168.211C217.796 167.592 217.092 166.776 216.24 166.14C215.457 167.25 214.638 168.364 213.804 169.437C213.678 169.641 213.486 169.797 213.259 169.88C213.102 170.403 213.478 170.944 213.76 171.413L215.27 173.93C215.769 174.846 216.381 175.697 217.092 176.463C217.814 177.233 218.8 177.709 219.856 177.796C220.523 177.79 221.183 177.665 221.805 177.426C224.683 176.466 227.325 174.934 230.062 173.632C230.558 173.351 231.114 173.189 231.684 173.16C232.27 173.145 232.794 173.519 232.966 174.075C233.28 175.647 233.591 177.214 234.023 178.759C234.43 180.215 234.808 181.68 235.158 183.151C235.391 184.052 235.557 184.968 235.656 185.893C235.701 186.418 235.706 186.945 235.711 187.472L235.769 193.84C235.775 194.525 235.381 194.953 235.078 195.569C234.613 196.525 234.543 197.623 234.883 198.629C235.053 199.126 235.32 199.585 235.508 200.075C235.965 201.26 235.947 202.565 235.923 203.833L235.869 206.739C235.855 206.859 235.877 206.981 235.932 207.089C236.111 207.366 236.542 207.203 236.814 207.016L238.184 206.074C240.017 206.325 241.869 206.414 243.718 206.34C248.975 206.264 254.234 206.472 259.48 206.836C261.23 206.957 263.039 207.089 264.693 206.51C265.533 206.216 266.306 205.746 267.164 205.511C267.518 205.456 267.854 205.319 268.145 205.11C268.625 204.67 268.497 203.897 268.302 203.278C268.13 202.736 267.936 202.203 267.718 201.677C267.494 201.194 267.311 200.693 267.172 200.179C266.909 199.02 267.165 197.681 266.437 196.737C264.809 194.625 265.961 191.374 265.278 188.803C265.057 187.971 264.73 187.169 264.523 186.333C264.393 185.809 264.31 185.274 264.228 184.74C264.014 183.585 263.908 182.413 263.911 181.238C263.93 180.65 264.005 180.066 264.08 179.483L264.597 175.432C265.244 176.63 265.693 177.923 265.928 179.261C266.399 181.261 266.979 183.233 267.665 185.171C268.055 186.339 268.445 187.507 268.867 188.665C269.134 189.323 269.339 190.005 269.481 190.701C269.574 191.262 269.576 191.835 269.642 192.4C269.784 193.612 270.211 194.774 270.89 195.791C271.015 196.027 271.223 196.21 271.474 196.305C271.644 196.337 271.818 196.33 271.985 196.285C273.813 195.927 275.583 195.32 277.243 194.481C277.597 194.336 277.904 194.098 278.131 193.793C278.578 193.072 278.078 192.172 277.861 191.353C277.628 190.476 277.682 189.421 276.986 188.833C274.561 186.786 275.765 182.631 274.551 179.711C274.338 179.198 274.089 178.699 273.906 178.176C273.765 177.776 273.663 177.363 273.561 176.952C272.714 173.551 271.807 170.165 270.84 166.795C269.838 163.3 269.945 159.66 268.684 156.249C268.447 155.534 268.137 154.845 267.76 154.192C267.333 153.51 266.762 152.927 266.087 152.484C264.257 151.284 262.408 150.261 260.258 149.825C258.108 149.39 255.779 149.457 253.585 149.467Z" fill="#D0CDE1"/>
<path d="M237.612 140.748C236.677 140.247 236.923 138.888 236.764 137.845C236.437 135.697 233.996 134.423 233.423 132.327C234.081 132.407 234.749 132.313 235.36 132.054C235.477 131.359 235.339 130.644 234.969 130.041C236.977 129.23 238.602 127.639 240.641 126.909C243.205 125.99 246.06 126.554 248.646 127.408C249.937 127.834 251.28 128.388 252.06 129.495C252.917 130.711 252.904 132.311 252.858 133.795C252.786 136.123 252.693 138.534 251.651 140.619C250.323 143.274 246.566 145.733 243.461 145.014C242.17 144.715 241.79 143.909 241.245 142.794C240.907 142.099 240.779 141.293 240.017 140.932C239.271 140.579 238.368 141.153 237.612 140.748Z" fill="#2F2E41"/>
<g opacity="0.1">
<path d="M266.051 190.245C266.06 190.429 266.065 190.613 266.067 190.799C266.058 190.616 266.053 190.431 266.051 190.245Z" fill="black"/>
<path d="M236.061 197.189C236.517 198.382 236.499 199.695 236.476 200.971C236.469 201.304 236.463 201.637 236.457 201.971C236.428 201.282 236.294 200.603 236.061 199.954C235.872 199.461 235.606 198.999 235.435 198.499C235.143 197.626 235.154 196.679 235.466 195.812C235.636 196.282 235.882 196.722 236.061 197.189Z" fill="black"/>
</g>
<g opacity="0.1">
<path d="M235.281 130.902L235.275 130.905C235.218 130.473 235.1 130.059 234.929 129.685C235.035 129.627 235.14 129.566 235.245 129.502C235.327 129.961 235.34 130.437 235.281 130.902V130.902Z" fill="black"/>
</g>
<path d="M17.9556 117.459L16.3283 115.975C10.5495 110.61 6.73434 107.128 6.73434 102.79C6.70542 101.123 7.34513 99.5144 8.50776 98.3316C9.67038 97.1489 11.2569 96.4923 12.906 96.5114C14.8557 96.5219 16.7023 97.3986 17.9556 98.9088C19.2089 97.3985 21.0555 96.5219 23.0052 96.5114C24.6543 96.4923 26.2409 97.1488 27.4035 98.3316C28.5661 99.5144 29.2058 101.123 29.1769 102.79C29.1769 107.128 25.3617 110.61 19.5829 115.975L17.9556 117.459Z" fill="#FF6584"/>
<path fill-rule="evenodd" clip-rule="evenodd" d="M20.9483 113.718L19.321 112.234C13.5421 106.869 9.72701 103.387 9.72701 99.0493C9.6981 97.3819 10.3378 95.7737 11.5004 94.5909C12.6631 93.4081 14.2496 92.7515 15.8987 92.7707C17.8484 92.7812 19.695 93.6578 20.9483 95.168C22.2016 93.6578 24.0482 92.7811 25.9979 92.7707C27.647 92.7515 29.2335 93.4081 30.3962 94.5909C31.5588 95.7736 32.1985 97.3819 32.1696 99.0493C32.1696 103.387 28.3544 106.869 22.5756 112.234L20.9483 113.718Z" stroke="#3F3D56" stroke-width="1.4963"/>
</svg>
