<svg width="298" height="284" viewBox="0 0 298 284" fill="none" xmlns="http://www.w3.org/2000/svg">
<path d="M44.9888 276.674C117.369 276.674 176.045 217.998 176.045 145.618C176.045 73.2376 117.369 14.5618 44.9888 14.5618C-27.3915 14.5618 -86.0674 73.2376 -86.0674 145.618C-86.0674 217.998 -27.3915 276.674 44.9888 276.674Z" fill="#F2F2F2"/>
<path d="M66.0198 165.602C37.1626 210.085 45.0695 266.663 45.0695 266.663C45.0695 266.663 99.7633 251.118 128.621 206.634C157.478 162.151 149.571 105.573 149.571 105.573C149.571 105.573 94.8771 121.118 66.0198 165.602Z" fill="#3F3D56"/>
<path d="M44.9806 265.753C44.9806 265.753 44.274 265.641 42.9734 265.379C41.9361 265.169 40.5078 264.87 38.7637 264.458C23.1728 260.8 -18.2778 248.432 -45.3779 215.916C-79.2961 175.199 -77.8678 118.315 -77.8678 118.315C-77.8678 118.315 -26.0057 126.702 8.16814 163.266C9.64908 164.837 11.0899 166.466 12.4906 168.151C42.0037 203.578 44.755 251.245 44.9731 263.029C45.0031 264.795 44.9806 265.753 44.9806 265.753Z" fill="#222F65"/>
<path fill-rule="evenodd" clip-rule="evenodd" d="M23.9574 165.602C52.8147 210.085 44.9078 266.663 44.9078 266.663C44.9078 266.663 -9.78599 251.118 -38.6432 206.634C-67.5005 162.151 -59.5936 105.573 -59.5936 105.573C-59.5936 105.573 -4.89981 121.118 23.9574 165.602Z" stroke="#3F3D56" stroke-width="1.82022"/>
<path opacity="0.1" d="M44.9889 263.984C44.2245 264.908 43.5501 265.696 42.9955 266.342C41.7665 267.747 41.0695 268.483 41.0695 268.483C41.0695 268.483 40.2227 267.417 38.7988 265.418C30.9825 254.496 5.83984 215.66 7.78078 170.799C7.88571 168.448 8.05807 166.121 8.29787 163.82C9.77423 165.398 11.2106 167.033 12.607 168.726C42.0287 204.294 44.7716 252.152 44.9889 263.984Z" fill="black"/>
<path d="M88.5677 174.087C86.2665 227.116 46.7378 268.483 46.7378 268.483C46.7378 268.483 10.94 223.874 13.2411 170.845C15.5423 117.817 55.0711 76.4495 55.0711 76.4495C55.0711 76.4495 90.8689 121.058 88.5677 174.087Z" fill="#222F65"/>
<path d="M46.8091 266.663L55.0001 78.2698" stroke="#3F3D56" stroke-width="1.82022"/>
<path d="M95.5 283.955C207.338 283.955 298 278.25 298 271.213C298 264.177 207.338 258.472 95.5 258.472C-16.3377 258.472 -107 264.177 -107 271.213C-107 278.25 -16.3377 283.955 95.5 283.955Z" fill="#3F3D56"/>
<path d="M100.505 183.843V41.8651V183.843Z" fill="#3F3D56"/>
<path d="M100.505 183.843V41.8651" stroke="#3F3D56" stroke-width="1.82022"/>
<path d="M100.505 52.7865C106.034 52.7865 110.517 48.3043 110.517 42.7753C110.517 37.2462 106.034 32.764 100.505 32.764C94.9763 32.764 90.4941 37.2462 90.4941 42.7753C90.4941 48.3043 94.9763 52.7865 100.505 52.7865Z" fill="#3F3D56"/>
<path d="M100.505 82.8202C100.505 82.8202 99.1085 52.251 70.4717 55.8042L100.505 82.8202Z" fill="#3F3D56"/>
<path d="M219.08 105.573L210.546 121.623C210.546 121.623 148.84 133.414 156.717 151.757C164.595 170.099 173.457 196.958 178.052 196.303C182.647 195.648 207.921 181.236 208.905 176.978C209.89 172.72 186.258 152.739 186.258 152.739L225.316 145.206C225.316 145.206 230.896 171.409 223.675 189.424C216.454 207.439 212.187 256.243 217.111 256.898C222.034 257.554 234.507 261.484 240.087 257.881C245.666 254.278 248.292 175.34 248.292 175.34C248.292 175.34 260.108 123.588 252.887 117.692C245.666 111.796 219.08 105.573 219.08 105.573Z" fill="#2F2E41"/>
<path d="M232.42 249.605C232.42 249.605 224.794 245.578 223.189 248.8C223.189 248.8 224.393 258.463 219.577 259.671C214.761 260.878 212.754 269.334 219.577 270.139C226.4 270.944 230.814 268.528 233.222 268.528C235.63 268.528 233.222 260.073 233.222 260.073L232.42 249.605Z" fill="#2F2E41"/>
<path d="M196.035 183.693C196.035 183.693 187.727 181.362 186.834 184.862C186.834 184.862 190.045 194.085 185.587 196.292C181.129 198.499 180.944 207.219 187.79 206.56C194.635 205.902 198.446 202.595 200.802 202.084C203.158 201.572 199.023 193.79 199.023 193.79L196.035 183.693Z" fill="#2F2E41"/>
<path d="M237.382 49.0175C237.382 49.0175 237.706 61.2403 235.437 62.2313C233.168 63.2224 248.081 69.1686 248.081 69.1686L250.674 64.5437C250.674 64.5437 247.756 48.0265 248.405 46.7051C249.053 45.3837 237.382 49.0175 237.382 49.0175Z" fill="#9F616A"/>
<path d="M242.483 51.8764C253.542 51.8764 262.506 42.912 262.506 31.8539C262.506 20.7958 253.542 11.8314 242.483 11.8314C231.425 11.8314 222.461 20.7958 222.461 31.8539C222.461 42.912 231.425 51.8764 242.483 51.8764Z" fill="#2F2E41"/>
<path d="M244.304 20.9326C248.828 20.9326 252.495 17.2653 252.495 12.7415C252.495 8.21778 248.828 4.55054 244.304 4.55054C239.78 4.55054 236.113 8.21778 236.113 12.7415C236.113 17.2653 239.78 20.9326 244.304 20.9326Z" fill="#2F2E41"/>
<path d="M233.279 8.19101C233.279 3.9976 236.466 0.481489 240.663 0.0442888C240.377 0.0148558 240.091 7.31787e-05 239.804 0C235.252 0 231.562 3.66724 231.562 8.19101C231.562 12.7148 235.252 16.382 239.804 16.382C240.091 16.382 240.377 16.3672 240.663 16.3377C236.466 15.9005 233.279 12.3844 233.279 8.19101Z" fill="#2F2E41"/>
<path d="M241.573 55.5169C249.113 55.5169 255.225 49.4048 255.225 41.8652C255.225 34.3256 249.113 28.2135 241.573 28.2135C234.033 28.2135 227.921 34.3256 227.921 41.8652C227.921 49.4048 234.033 55.5169 241.573 55.5169Z" fill="#9F616A"/>
<path d="M251.812 59.894C251.812 59.894 240.023 63.4801 234.128 59.894C228.233 56.3078 214.151 66.7403 211.858 71.3045C209.566 75.8686 220.373 80.4328 220.373 80.4328C220.373 80.4328 217.287 89.2467 217.917 93.6364C218.572 98.2006 217.426 107.492 217.426 107.492C217.426 107.492 246.358 126.468 252.795 117.924C253.777 116.62 261.964 85.9751 261.964 85.9751L273.427 74.5646C273.427 74.5646 266.222 64.1321 261.964 63.1541C257.707 62.1761 251.812 59.894 251.812 59.894Z" fill="#D0CDE1"/>
<path d="M172.347 126.506C172.347 126.506 150.274 138.19 154.819 141.528C159.363 144.867 177.865 128.509 177.865 128.509L172.347 126.506Z" fill="#9F616A"/>
<path d="M259.705 118.259C259.705 118.259 249.697 111.236 248.086 114.747C246.475 118.259 259.043 126.166 261.689 123.072C264.335 119.978 259.705 118.259 259.705 118.259Z" fill="#9F616A"/>
<path d="M267.756 70.0786L273.592 73.7084C273.592 73.7084 293.372 101.427 286.562 107.697C279.753 113.966 262.243 126.506 262.243 126.506C262.243 126.506 256.407 117.926 258.352 117.596C260.298 117.266 275.862 104.067 275.862 104.067L262.243 78.3282L267.756 70.0786Z" fill="#D0CDE1"/>
<path d="M215.343 69.1685L211.096 70.8162L199.988 90.9191L170.584 126.841C170.584 126.841 174.505 133.102 177.772 131.784C181.039 130.466 205.542 102.783 205.542 102.783L221.551 77.7369L215.343 69.1685Z" fill="#D0CDE1"/>
<path d="M242.938 33.6743C250.729 33.6743 257.045 30.007 257.045 25.4832C257.045 20.9595 250.729 17.2922 242.938 17.2922C235.147 17.2922 228.831 20.9595 228.831 25.4832C228.831 30.007 235.147 33.6743 242.938 33.6743Z" fill="#2F2E41"/>
<rect x="149.652" y="202.955" width="64.618" height="64.618" fill="#222F65"/>
<path fill-rule="evenodd" clip-rule="evenodd" d="M194.126 247.923C200.892 247.923 205.169 242.169 205.169 233.039C205.169 220.619 195.654 212.056 181.925 212.056C167.641 212.056 157.843 221.691 157.843 235.725C157.843 250.104 167.444 259.369 182.442 259.381C185.042 259.394 187.634 259.113 190.17 258.543C191.199 258.295 191.841 257.271 191.617 256.237C191.392 255.203 190.383 254.536 189.344 254.736C187.131 255.126 184.887 255.316 182.64 255.303C170.303 255.303 162.378 247.738 162.378 235.885C162.378 224.291 170.389 216.098 181.629 216.098C192.992 216.098 200.683 222.96 200.683 233.224C200.683 239.655 198.513 243.795 195.1 243.795C193.128 243.795 192.031 242.6 192.031 240.616V224.685H187.113V228.111H186.62C185.487 225.609 182.911 224.082 179.879 224.082C173.975 224.082 169.933 228.874 169.933 235.762C169.933 242.933 173.951 247.75 179.965 247.75C183.342 247.75 185.856 246.185 187.076 243.327H187.569C188.025 246.075 190.663 247.923 194.126 247.923ZM180.877 243.191C177.389 243.191 175.245 240.431 175.245 235.873C175.245 231.302 177.352 228.616 180.938 228.616C184.55 228.616 186.867 231.388 186.867 235.873C186.867 240.358 184.55 243.191 180.877 243.191Z" fill="white"/>
</svg>
