<svg width="480" height="299" viewBox="0 0 480 299" fill="none" xmlns="http://www.w3.org/2000/svg">
<path d="M379.774 144.093C382.295 144.093 384.339 142.049 384.339 139.527C384.339 137.006 382.295 134.961 379.774 134.961C377.252 134.961 375.208 137.006 375.208 139.527C375.208 142.049 377.252 144.093 379.774 144.093Z" fill="#FF6584"/>
<path d="M345.979 211.952L380.666 172.12L381.737 173.052L347.05 212.884L345.979 211.952Z" fill="#3F3D56"/>
<path d="M381.601 179.705C385.635 179.705 388.906 176.435 388.906 172.4C388.906 168.366 385.635 165.095 381.601 165.095C377.566 165.095 374.295 168.366 374.295 172.4C374.295 176.435 377.566 179.705 381.601 179.705Z" fill="#3F3D56"/>
<path d="M359.946 197.055C359.946 197.055 373.972 179.182 356.033 166.921Z" fill="#3F3D56"/>
<path d="M127.362 228.471C153.065 276.128 207.617 296.587 207.617 296.587C207.617 296.587 220.495 239.777 194.792 192.12C169.089 144.462 114.537 124.004 114.537 124.004C114.537 124.004 101.659 180.813 127.362 228.471Z" fill="#3F3D56"/>
<path d="M144.752 212.998C191.149 240.992 209.017 296.594 209.017 296.594C209.017 296.594 151.662 306.811 105.266 278.817C58.8688 250.824 41 195.221 41 195.221C41 195.221 98.3551 185.005 144.752 212.998Z" fill="#111B47"/>
<path d="M328.816 213.245C282.167 240.856 263.806 296.358 263.806 296.358C263.806 296.358 321.078 307.095 367.726 279.484C414.375 251.873 432.737 196.37 432.737 196.37C432.737 196.37 375.465 185.634 328.816 213.245Z" fill="#3F3D56"/>
<path d="M345.749 230.129C319.629 277.535 264.907 297.5 264.907 297.5C264.907 297.5 252.534 240.606 278.654 193.201C304.773 145.796 359.495 125.83 359.495 125.83C359.495 125.83 371.868 182.724 345.749 230.129Z" fill="#111B47"/>
<path d="M250.914 100.299C245.421 95.3289 244.652 86.9768 249.145 81.0864C248.858 81.3554 248.577 81.6347 248.309 81.9317C243.033 87.7699 243.486 96.782 249.322 102.061C255.157 107.339 264.165 106.886 269.441 101.048C269.71 100.751 269.959 100.443 270.198 100.131C264.791 105.194 256.408 105.267 250.914 100.299V100.299Z" fill="#2F2E41"/>
<path d="M237.782 110.307C254.172 110.307 267.459 97.0199 267.459 80.6298C267.459 64.2397 254.172 50.9528 237.782 50.9528C221.392 50.9528 208.105 64.2397 208.105 80.6298C208.105 97.0199 221.392 110.307 237.782 110.307Z" fill="#2F2E41"/>
<path d="M229.324 118.553L230.214 116.265L214.018 129.816L194.442 140.727C194.442 140.727 184.476 102.715 183.764 102.011C183.052 101.307 170.238 74.5571 164.543 87.228C158.848 99.8989 175.577 107.29 175.577 107.29C175.577 107.29 176.111 153.574 193.196 153.222C210.281 152.87 231.459 137.56 231.815 136.152C232.171 134.744 229.324 118.553 229.324 118.553Z" fill="#FFB8B8"/>
<path d="M234.128 111.22C243.962 111.22 251.934 103.248 251.934 93.4137C251.934 83.5796 243.962 75.6075 234.128 75.6075C224.294 75.6075 216.322 83.5796 216.322 93.4137C216.322 103.248 224.294 111.22 234.128 111.22Z" fill="#FFB8B8"/>
<path d="M237.214 106.426C237.214 106.426 241.838 112.424 240.415 113.129C238.992 113.835 230.812 114.188 225.832 120.185C220.852 126.183 231.879 141.353 231.879 141.353L273.85 113.482L256.777 107.837C256.777 107.837 245.039 101.487 245.395 94.7834L237.214 106.426Z" fill="#FFB8B8"/>
<path d="M293.939 298.413H246.793C244.123 278.929 242.888 261.073 242.888 261.073C242.888 261.073 242.199 279.034 240.366 298.413H179.796C188.382 241.031 229.086 178.806 229.086 178.806C229.086 178.806 229.44 170.33 230.502 168.916C231.565 167.507 224.487 167.154 221.299 156.562C219.356 150.096 221.103 145.865 222.764 143.554C223.334 142.721 224.035 141.985 224.841 141.376C224.841 141.376 225.549 133.964 224.841 132.904C224.75 132.766 225.448 132.279 226.741 131.538C227.817 130.918 229.306 130.12 231.086 129.203C241.285 123.926 261.026 114.59 267.789 111.41C269.272 110.708 270.134 110.307 270.134 110.307L282.165 114.542C291.718 117.718 291.718 137.847 291.718 137.847L291.177 138.668L276.738 160.492L268.363 173.157C270.488 174.566 266.243 183.395 266.243 183.395C266.243 183.395 272.292 192.068 277.212 205.305C279.994 212.673 281.891 220.343 282.864 228.156C283.484 233.22 283.606 238.331 283.228 243.419C281.917 260.429 287.746 281.102 293.939 298.413Z" fill="#2F2E41"/>
<path d="M282.024 116.182C281.24 115.736 280.3 115.662 279.457 115.981C278.614 116.3 277.953 116.979 277.65 117.837C276.597 120.766 275.53 126.873 275.91 139.571C276.609 162.922 276.959 178.844 276.959 178.844V214.225C276.959 214.225 261.57 248.191 269.964 248.191C278.358 248.191 284.304 221.301 284.304 221.301C284.304 221.301 291.998 180.613 289.55 173.536C289.55 173.536 296.453 124.652 282.024 116.182Z" fill="#FFB8B8"/>
<path d="M232.303 88.3915C240.624 88.3915 247.37 83.69 247.37 77.8904C247.37 72.0908 240.624 67.3893 232.303 67.3893C223.982 67.3893 217.236 72.0908 217.236 77.8904C217.236 83.69 223.982 88.3915 232.303 88.3915Z" fill="#2F2E41"/>
<path d="M256.5 69.2156C264.569 69.2156 271.111 62.6744 271.111 54.6054C271.111 46.5364 264.569 39.9952 256.5 39.9952C248.431 39.9952 241.89 46.5364 241.89 54.6054C241.89 62.6744 248.431 69.2156 256.5 69.2156Z" fill="#2F2E41"/>
<path d="M266.545 65.001C258.949 65 252.621 59.2899 251.989 51.8659C251.956 52.26 251.935 52.6575 251.935 53.06C251.935 60.9738 258.476 67.3892 266.545 67.3892C274.614 67.3892 281.155 60.9738 281.155 53.06C281.155 52.6575 281.134 52.26 281.101 51.8659C280.468 59.2899 274.141 65 266.545 65.001V65.001Z" fill="#2F2E41"/>
<path d="M251.378 90.2345C252.043 90.0756 252.288 88.7141 251.925 87.1936C251.561 85.673 250.728 84.5691 250.062 84.728C249.397 84.8869 249.152 86.2484 249.516 87.769C249.879 89.2895 250.712 90.3934 251.378 90.2345Z" fill="#FFB8B8"/>
<path d="M251.022 90.2177C251.526 90.2177 251.935 89.8089 251.935 89.3046C251.935 88.8002 251.526 88.3914 251.022 88.3914C250.518 88.3914 250.109 88.8002 250.109 89.3046C250.109 89.8089 250.518 90.2177 251.022 90.2177Z" fill="#F2F2F2"/>
<path fill-rule="evenodd" clip-rule="evenodd" d="M41 112.935C41 116.213 43.6574 118.871 46.9354 118.871C50.2119 118.867 52.8671 116.212 52.8708 112.935C52.8708 109.657 50.2134 107 46.9354 107C43.6574 107 41 109.657 41 112.935ZM41.9894 112.935C41.9894 110.204 44.2039 107.989 46.9356 107.989C49.666 107.992 51.8786 110.205 51.8817 112.935C51.8817 115.667 49.6673 117.881 46.9356 117.881C44.2039 117.881 41.9894 115.667 41.9894 112.935Z" fill="#3F3D56"/>
<path fill-rule="evenodd" clip-rule="evenodd" d="M93 134.935C93 138.213 95.6574 140.871 98.9354 140.871C102.212 140.867 104.867 138.212 104.871 134.935C104.871 131.657 102.213 129 98.9354 129C95.6574 129 93 131.657 93 134.935ZM93.9894 134.935C93.9894 132.204 96.2039 129.989 98.9356 129.989C101.666 129.992 103.879 132.205 103.882 134.935C103.882 137.667 101.667 139.881 98.9356 139.881C96.2039 139.881 93.9894 137.667 93.9894 134.935Z" fill="#3F3D56"/>
<path fill-rule="evenodd" clip-rule="evenodd" d="M320.174 109.741L332.639 106.9L329.798 94.4359L317.333 97.2768L320.174 109.741ZM331.462 106.16L320.915 108.564L318.511 98.017L329.058 95.6132L331.462 106.16Z" fill="#3F3D56"/>
<path d="M439.201 174.713C417.011 174.814 398.949 175.14 398.949 175.14C398.949 175.14 420.418 146.918 439.12 157.374C457.822 167.83 479.305 174.772 479.305 174.772C479.305 174.772 461.39 174.611 439.201 174.713Z" fill="#F2F2F2"/>
<path d="M160.947 91.2522L109.701 64.7969C106.201 62.9904 104.823 58.6778 106.623 55.1645L118.696 31.5935C119.05 30.9017 119.672 30.3866 120.416 30.1689L160.808 18.345C164.161 17.3634 167.694 19.1869 168.849 22.4964L182.121 60.5019C182.791 62.4206 182.646 64.5315 181.719 66.3397L170.542 88.162C169.678 89.8491 168.182 91.1225 166.382 91.7021C164.583 92.2816 162.628 92.1198 160.947 91.2522V91.2522Z" fill="#F2F2F2"/>
<path opacity="0.1" d="M162.763 82.5255L111.133 60.39C109.47 59.531 111.03 60.8514 111.885 59.1808L118.375 32.6901L181.623 65.3506L165.633 85.2054C164.778 86.876 164.427 83.3845 162.763 82.5255Z" fill="black"/>
<path d="M119.673 67.0611C116.002 65.1733 114.556 60.6667 116.444 56.9953L133.829 23.1847C135.717 19.5134 140.224 18.0676 143.895 19.9554L177.706 37.3413C181.377 39.2291 182.823 43.7357 180.935 47.407L163.549 81.2177C161.662 84.889 157.155 86.3348 153.484 84.447L119.673 67.0611Z" fill="#111B47"/>
<path opacity="0.1" d="M173.405 61.532L160.126 87.4783L113.138 63.2016L126.417 37.2557L144.072 60.8034L173.405 61.532V61.532Z" fill="black"/>
<path d="M143.501 62.5101L120.706 32.3267C120.419 31.9472 119.957 31.7414 119.482 31.7819C119.008 31.8224 118.587 32.1035 118.369 32.526L105.398 57.6881C104.874 58.7047 104.776 59.8874 105.126 60.976C105.476 62.0645 106.245 62.9697 107.265 63.4925L163.781 92.48C164.8 93.0028 165.986 93.1003 167.077 92.751C168.168 92.4018 169.076 91.6345 169.6 90.6178L182.349 65.8868C182.615 65.3712 182.596 64.7555 182.3 64.2568C182.003 63.7582 181.47 63.4468 180.889 63.4325L143.501 62.5101Z" fill="#F2F2F2"/>
<path d="M139.083 22.9488L152.256 29.7228L151.298 31.5858L138.125 24.8117L139.083 22.9488Z" fill="#F2F2F2"/>
<path d="M134.527 29.1877L173.649 49.3046L173.102 50.3691L133.98 30.2523L134.527 29.1877Z" fill="#F2F2F2"/>
<path d="M132.681 32.7806L171.802 52.8974L171.255 53.962L132.133 33.8451L132.681 32.7806Z" fill="#F2F2F2"/>
<path d="M130.833 36.3734L169.955 56.4903L169.408 57.5548L130.286 37.4379L130.833 36.3734Z" fill="#F2F2F2"/>
<path d="M144.251 21.0765C145.804 18.0579 144.619 14.3548 141.606 12.8054C138.593 11.256 134.892 12.4471 133.34 15.4657C131.788 18.4843 132.972 22.1874 135.985 23.7367C138.998 25.2861 142.699 24.0951 144.251 21.0765Z" fill="white"/>
<path fill-rule="evenodd" clip-rule="evenodd" d="M132.211 14.7399C134.057 11.1527 138.462 9.74008 142.051 11.5847C145.631 13.4375 147.041 17.8315 145.208 21.4197C143.363 25.0069 138.957 26.4196 135.368 24.575C131.779 22.7304 130.366 18.3271 132.211 14.7399ZM133.976 15.8168L135.594 20.8572L144.678 17.9494L144.225 16.5356L136.556 18.9946L135.39 15.3632L133.976 15.8168Z" fill="#57B894"/>
<path d="M41.0747 47.5538C18.4311 47.6599 0 48 0 48C0 48 21.9082 18.499 40.9926 29.4289C60.0769 40.3588 82 47.6158 82 47.6158C82 47.6158 63.7184 47.4477 41.0747 47.5538Z" fill="#F2F2F2"/>
</svg>
